<?xml version="1.0" encoding="iso-8859-1"?>
<!-- Generator: Adobe Illustrator 19.0.0, SVG Export Plug-In . SVG Version: 6.00 Build 0)  -->
<svg version="1.1" id="Capa_1" xmlns="http://www.w3.org/2000/svg" xmlns:xlink="http://www.w3.org/1999/xlink" x="0px" y="0px"
	 viewBox="0 0 512 512" style="enable-background:new 0 0 512 512;" xml:space="preserve">
<g>
	<g>
		<path d="M30,472c0-5.514,4.486-10,10-10h432c22.056,0,40-17.944,40-40c0-22.056-17.944-40-40-40H281c-5.514,0-10-4.486-10-10v-20
			h30v-63.781c20.464-8.019,35-27.947,35-51.219v-5h10c19.299,0,35-15.701,35-35v-17h41c19.299,0,35-15.701,35-35V0H55v145
			c0,19.299,15.701,35,35,35h41v17c0,19.299,15.701,35,35,35h10v5c0,23.272,14.536,43.2,35,51.219V352h30v20
			c0,22.056,17.944,40,40,40h191c5.514,0,10,4.486,10,10c0,5.514-4.486,10-10,10H40c-22.056,0-40,17.944-40,40
			c0,22.056,17.944,40,40,40h472v-30H40C34.486,482,30,477.514,30,472z M131,82v68H90c-2.757,0-5-2.243-5-5V30h36v22h30V30h30v22h30
			V30h30v22h30V30h30v22h30V30h30v22h30V30h36v115c0,2.757-2.243,5-5,5h-41V82H131z M166,202c-2.757,0-5-2.243-5-5v-85h190v85
			c0,2.757-2.243,5-5,5H166z M231,262c-13.785,0-25-11.215-25-25v-5h100v5c0,13.785-11.215,25-25,25H231z M241,322v-30h30v30H241z"
			/>
	</g>
</g>
<g>
	<g>
		<circle cx="306" cy="157" r="15"/>
	</g>
</g>
<g>
</g>
<g>
</g>
<g>
</g>
<g>
</g>
<g>
</g>
<g>
</g>
<g>
</g>
<g>
</g>
<g>
</g>
<g>
</g>
<g>
</g>
<g>
</g>
<g>
</g>
<g>
</g>
<g>
</g>
</svg>
